<svg id="Layer_1" enable-background="new 0 0 128 128" viewBox="0 0 128 128" xmlns="http://www.w3.org/2000/svg" xmlns:xlink="http://www.w3.org/1999/xlink"><linearGradient id="lg1"><stop offset="0" stop-color="#d74a4b"/><stop offset="1" stop-color="#891719"/></linearGradient><linearGradient id="SVGID_1_" gradientUnits="userSpaceOnUse" x1="86.256" x2="86.256" xlink:href="#lg1" y1="-81.958" y2="209.958"/><linearGradient id="lg2"><stop offset="0" stop-color="#e15355"/><stop offset="1" stop-color="#cd1f26"/></linearGradient><linearGradient id="SVGID_2_" gradientUnits="userSpaceOnUse" x1="63.199" x2="63.199" xlink:href="#lg2" y1="-54.717" y2="108.179"/><linearGradient id="SVGID_3_" gradientUnits="userSpaceOnUse" x1="116" x2="116" xlink:href="#lg2" y1="68.562" y2="-23.133"/><linearGradient id="SVGID_4_" gradientUnits="userSpaceOnUse" x1="91.64" x2="91.64" xlink:href="#lg1" y1="-74.289" y2="244.536"/><g clip-rule="evenodd" fill-rule="evenodd"><path d="m2.5 102.9 62-4.5 29 1.6 28.4 15.8c.3.2-.2.4-1.1.5l-73.4 11.6c-.9.1-2 .1-2.3-.1l-43.7-24.4c-.4-.2.1-.4 1.1-.5z" opacity=".2"/><path d="m47.5 0 57.8 12 21.5 21.4v80.9c0 .9-.7 1.5-1.7 1.6l-77.6 12.1c-.9.1-1.7-.7-1.7-1.6v-124.7c0-.9.7-1.7 1.7-1.7z" fill="url(#SVGID_1_)"/><path d="m48.2.1 1 .2.3.1v127.3l-1.3.2zm3.4.7.6.2v126.3l-1.3.2v-126.8zm3.2 126-1.3.2v-125.8l1.3.3z" opacity=".2"/><path d="m45.9 57.7-.1-50.6 48.1 9.3c2.5.5 4.6 2.1 4.6 4.6v19.7c0 2.5-2 4.3-4.5 4.9z" opacity=".4"/><path d="m104.1 12h1.1l21.5 21.4v1.1h-19c-2 0-3.7-1.6-3.7-3.7v-18.8z" opacity=".4"/><path d="m31.5 4.4 63.5 12c1.9.4 3.5 1.6 3.5 3.5v20.7c0 1.9-1.6 3.2-3.5 3.5l-63.5 12.2c-1.9.4-3.5-1.6-3.5-3.5v-44.9c-.1-1.9 1.6-3.9 3.5-3.5z" fill="url(#SVGID_2_)"/><path d="m126.7 33.4h-19c-1.4 0-2.5-1.1-2.5-2.5v-18.9z" fill="url(#SVGID_3_)"/></g><g fill="#fff"><path d="m44.2 41.3v-21.5h4.8c2.2 0 3.8.6 4.8 1.8 1.1 1.2 1.6 3 1.6 5.4 0 2.3-.6 4-1.8 5.3s-2.8 1.9-4.9 1.9h-.4v7h-4.1zm4.2-18.3v7.9h.2c.9 0 1.6-.3 2-1 .5-.7.7-1.7.7-3s-.2-2.2-.7-2.9c-.5-.6-1.2-1-2.2-1z"/><path d="m58.1 41.3v-21.5h4.2c2.9 0 4.9.8 6.2 2.4s1.9 4.2 1.9 7.8c0 3.9-.6 6.7-1.9 8.5-1.2 1.8-3.2 2.7-5.9 2.7h-4.5zm4.1-3.4h.1c1.4 0 2.3-.5 2.9-1.6s.8-3 .8-5.7c0-2.8-.3-4.7-.8-5.8-.6-1.1-1.5-1.6-2.9-1.6h-.2v14.7z"/><path d="m73.2 41.3v-21.5h9v3.4h-4.8v5.1h4.8v3.3h-4.8v9.6h-4.2z"/></g><g clip-rule="evenodd" fill-rule="evenodd"><path d="m84 81.4 3.7 4.3c.6.6 1.3 1.2 2 1.8 1.1.9 2.2 1.8 3.3 2.7s2.3 1.7 3.5 2.5c.4.2 1.6 1 2 1 1.6 0 3.2-.1 4.8-.2 2.3-.1 4.6-.2 6.9-.2 2.7 0 5.7.1 8.4.7 2 .4 4.7 1.3 5.6 3.4.1.3.2.7.3 1.1.1 1.1-.1 2.1-.7 3-1 1.4-2.7 2.2-4.3 2.5-2.3.4-5.2 0-7.5-.4s-4.7-1-7-1.8c-1.4-.4-2.7-1-4-1.6-1-.4-1.9-.8-2.9-1.2-.4-.2-1.1-.5-1.6-.6-2.7 0-5.6.4-8.3.9-2.9.6-5.8 1.3-8.6 2.1-1.3.4-4.2 1-4.9 2.1-2.2 3.1-4.8 7.2-8.4 8.8-2.7 1.2-5.8.3-7.3-2.3-.4-.7-.6-1.5-.5-2.3.5-3.6 6.4-5.7 9.4-7 .9-.4 1.8-.7 2.7-1 .4-.1.8-.3 1.2-.5.3-.2.5-.6.7-.9 1-1.7 1.9-3.4 2.7-5.2.3-.8.6-1.7.8-2.5.4-1.2.7-2.5 1-3.8s1-4.8.7-6.1c-.2-.3-.4-.6-.6-.9-.4-.7-.9-1.4-1.3-2-1.2-1.9-2.3-3.9-3.3-5.9-1.2-2.3-2.6-5.3-2.9-7.9-.4-3.3.7-5.3 3.9-6.4 1.3-.4 2.6-.5 3.9.1 3.3 1.6 4.3 6.9 4.7 10.3.3 2.6.3 5.3.3 7.9v2.5c0 .3 0 .7.1.9s.2.5.4.7c.4.5.8.9 1.1 1.4zm-6.3-9.8c-.2-3.3-.6-6.9-1.6-8.8-.2-.4-.9-.9-1.4-.8-.3.1-.3.9-.3 1.1 0 1.8 1.1 4.2 1.9 5.7.5.9 1 1.9 1.4 2.8zm31.2 26.4c2.5.7 5.1 1.3 7.5 1.3.9 0 1.8 0 2.6-.2.1 0 .2-.1.4-.1-.4-.2-.9-.3-1.1-.4-1.1-.3-2.4-.4-3.5-.5-1.5-.1-3-.2-4.5-.2-.4.1-.9.1-1.4.1zm-30.3-1c1.1-.3 2.1-.6 3.2-.9 2.4-.7 4.9-1.2 7.4-1.6.6-.1 1.1-.1 1.7-.2l-.9-.7c-1.5-1-3.1-2.5-4.4-3.8-1.2-1.2-2.4-2.4-3.5-3.7-.7 3.9-1.9 7.4-3.5 10.9zm-12 9.6c-.1.1-.3.1-.4.2-.5.2-1.8.9-2.4 1.4h.2c.8.1 1.9-.9 2.6-1.6z" fill="url(#SVGID_4_)"/><path d="m70.7 103.5c-1 1.4-5.2 8-8.1 5.5-1.5-1.3 2.2-3 3.1-3.4 1.5-.7 3.4-1.6 5-2.1zm5.4-4.4c2.3-4.7 4.5-9.6 4.9-16l1.6 1.7c1.9 2 5.7 6.2 8.1 7.7l3.5 2.6c-.9.3-3.7.5-4.9.6-5.5.9-8.3 2-13.2 3.4zm42.6-1.7c5.8 1.3 2.1 6-12.6 1.1-.7-.2-1.3-.5-2.1-.7-.8-.3-1.5-.4-2-.9 4-.3 12.6-.4 16.7.5zm-39.5-21c-.9-.9-3.2-5.3-4.1-6.9-5-9.9.6-9.9 2.1-7.3 1.9 3.1 2 10.5 2 14.2zm-5.1-17.5c-2.2.8-3.3 2-3 5 .7 5.7 7.8 15.8 8 16.4.8 2.5-1.6 11.1-2.5 13.4-.8 2.1-1.8 3.7-2.8 5.4-1.1 1.9-1.7 1.6-5.2 3-2.6 1.1-10.3 3.8-8.3 7.4.9 1.7 3.2 2.8 5.6 1.7 3.2-1.5 5.8-5.5 7.8-8.4 1.1-1.5 3.8-2 5.6-2.6 4.5-1.4 12.4-3.2 17.4-3.1.8 0 6.4 2.6 8.8 3.4 3.5 1.1 9.9 2.8 13.8 2.1 2.1-.3 4.2-1.7 4-4.1-.6-5.6-19.7-3.6-24.7-3.5-2.2 0-10.3-6.8-11.9-8.4l-3.7-4.4c-2-2.8-1.8-2.1-1.8-6.3 0-2.5-.1-5.3-.3-7.8-.5-4-2-10.9-6.8-9.2z" fill="#fff"/></g></svg>